# xmcd CD database file
#
# Track frame offsets:
#	150
#	18292
#	41307
#	59449
#
# Disc length: 1098 seconds
#
# Revision: 0
# Processed by: cddbd v1.5.1PL0 Copyright (c) Steve Scherf et al.
# Submitted via: CDex 1.51
#
DISCID=27044804
DTITLE=　 - and then,／橋本みゆき
DYEAR=2005
DGENRE=Anime
TTITLE0=橋本みゆき - and then,
TTITLE1=橋本みゆき - なきがお のち はれ
TTITLE2=and then, (off vocal)
TTITLE3=なきがお のち はれ (off vocal)
EXTD=YEAR: 2005
EXTT0=
EXTT1=
EXTT2=
EXTT3=
PLAYORDER=
